<svg width="39" height="39" viewBox="0 0 39 39" fill="none" xmlns="http://www.w3.org/2000/svg">
<g filter="url(#filter0_d_47_194)">
<rect x="10" y="2" width="19" height="19" rx="9.5" fill="#31762B"/>
</g>
<path fill-rule="evenodd" clip-rule="evenodd" d="M19.4999 8.67566C19.1454 8.67566 18.858 8.96304 18.858 9.31755V10.8581H17.3175C16.963 10.8581 16.6756 11.1455 16.6756 11.5C16.6756 11.8545 16.963 12.1419 17.3175 12.1419H18.858V13.6824C18.858 14.0369 19.1454 14.3243 19.4999 14.3243C19.8544 14.3243 20.1418 14.0369 20.1418 13.6824V12.1419H21.6823C22.0368 12.1419 22.3242 11.8545 22.3242 11.5C22.3242 11.1455 22.0368 10.8581 21.6823 10.8581H20.1418V9.31755C20.1418 8.96304 19.8544 8.67566 19.4999 8.67566Z" fill="white"/>
<defs>
<filter id="filter0_d_47_194" x="0" y="0" width="39" height="39" filterUnits="userSpaceOnUse" color-interpolation-filters="sRGB">
<feFlood flood-opacity="0" result="BackgroundImageFix"/>
<feColorMatrix in="SourceAlpha" type="matrix" values="0 0 0 0 0 0 0 0 0 0 0 0 0 0 0 0 0 0 127 0" result="hardAlpha"/>
<feOffset dy="8"/>
<feGaussianBlur stdDeviation="5"/>
<feColorMatrix type="matrix" values="0 0 0 0 0.554167 0 0 0 0 0.415821 0 0 0 0 0.258611 0 0 0 0.29 0"/>
<feBlend mode="normal" in2="BackgroundImageFix" result="effect1_dropShadow_47_194"/>
<feBlend mode="normal" in="SourceGraphic" in2="effect1_dropShadow_47_194" result="shape"/>
</filter>
</defs>
</svg>
